<?xml version="1.0" encoding="UTF-8"?>
<svg width="100pt" height="100pt" version="1.1" viewBox="0 0 100 100" xmlns="http://www.w3.org/2000/svg">
 <path d="m59.375 5.207h-34.375c-8.6289 0-15.625 6.9961-15.625 15.625v58.336c0 8.6289 6.9961 15.625 15.625 15.625h50c8.6289 0 15.625-6.9961 15.625-15.625v-38.543h-15.625c-8.6289 0-15.625-6.9961-15.625-15.625zm30.855 29.168c-0.54297-2.3828-1.6406-4.6172-3.2266-6.5195l-14.188-17.023c-1.9102-2.293-4.4141-3.9648-7.1914-4.8633v19.031c0 5.1758 4.1992 9.375 9.375 9.375zm-21.957 12.945c1.4805 0.88672 1.9609 2.8086 1.0742 4.2891l-12.5 20.832c-0.52734 0.875-1.4492 1.4414-2.4727 1.5117-1.0195 0.066406-2.0078-0.36719-2.6484-1.168l-5.4258-6.7812c-0.38672-0.48438-1.1094-0.52344-1.5508-0.085937l-7.125 7.125c-0.85156 0.85547-2.1211 1.1406-3.2578 0.73438-1.1367-0.40625-1.9414-1.4297-2.0586-2.6328l-2.0859-20.832c-0.17188-1.7188 1.082-3.25 2.8008-3.4219 1.7148-0.17188 3.2461 1.082 3.418 2.7969l1.4297 14.273 2.4609-2.4609c3.0742-3.0742 8.1328-2.793 10.852 0.59766l2.6172 3.2734 10.188-16.98c0.88672-1.4805 2.8047-1.957 4.2852-1.0703z" fill-rule="evenodd"/>
</svg>
